<svg scale="1.5" id="mySVG" xmlns="http://www.w3.org/2000/svg" version="1.1" x="-2" y="22" viewBox="0 0 595.28 575.97" xml:space="preserve" style="user-select: none; touch-action: none; transform-origin: 50% 50%; transition: none 0s ease 0s; transform: scale(1) translate(0px, 0px);">
   <style type="text/css"> .st0 { fill: none; } .st1 { fill: #d8eac1; } .st2 { fill: #bfbfbf; stroke: #000000; stroke-width: 0.4394; stroke-miterlimit: 10; } .st3 { fill: #b3b3b3; stroke: #272e1a; stroke-width: 0.4398; stroke-miterlimit: 10; } .st4 { fill: #ffffff; stroke: #272e1a; stroke-width: 0.4398; stroke-linecap: round; stroke-linejoin: round; stroke-miterlimit: 10; } .st5 { fill: #4d4d4d; } .st6 { fill: #010101; } .st7 { fill: #9262a6; } .st8 { fill: #a999c9; } .st9 { fill: none; stroke: #010101; stroke-width: 0.2081; stroke-miterlimit: 10; } .st10 { font-family: 'Gotham-Bold'; } .st11 { font-size: 9.508px; } .st12 { font-family: 'GothamBook'; } .st13 { fill: #4d4c4b; } .st14 { font-family: 'Gotham-Medium'; } .st15 { font-size: 6.1088px; } .st16 { fill: #4c4c4b; } .st17 { font-size: 16.2217px; } .st18 { fill: #c7aed4; stroke: #272e1a; stroke-width: 0.4398; stroke-miterlimit: 10; } .st19 { fill: none; stroke: #000000; stroke-width: 0.2709; stroke-miterlimit: 10; } .st20 { font-size: 5.026px; } .st21 { font-size: 3.2406px; } .st22 { font-size: 3.8213px; } .st23 { font-size: 3.5px; } .st24 { fill: #231f20; } .st25 { font-size: 4px; } .st26 { fill: #9e76b4; stroke: #272e1a; stroke-width: 0.4398; stroke-miterlimit: 10; } .st27 { fill: none; stroke: #000000; stroke-width: 0.4398; stroke-miterlimit: 10; } .st28 { font-size: 8.1597px; } .st29 { font-size: 5px; } .st30 { font-size: 6.2038px; } .st31 { font-size: 5.8291px; } </style>
   <g id="artwork">
      <g>
         <path d="M347.35,65.67c-4.02,0.78-7.84,1.61-11.35,2.49c-3.19,0.8-6.66,1.59-10.42,2.44h14.79L347.35,65.67z" class="st0"></path>
         <path d="M511.16,280.76l-1.88,43.12l0.07,2.61c0.81-17.32,1.53-34.91,1.89-49.11c1-39.13,2.11-138.11,1.55-148.48    c-0.21-4-2.99-13.85-9.86-25.19l5.16,179.44L511.16,280.76z" class="st0"></path>
         <polygon points="223.49,211.56 216.93,218.2 223.64,211.42   " class="st0"></polygon>
         <path d="M151.52,115.54l-8.1-11.6l14.15-9.88l8.31,11.89c21.87-14.28,46.38-25.86,70.46-35.36H82.86l2.8,97.29    c0.89-0.85,1.76-1.65,2.58-2.37C104.3,151.37,119.21,137.6,151.52,115.54z" class="st0"></path>
         <polygon points="395.49,193.44 400.63,188.23 393.92,195.01   " class="st0"></polygon>
         <path d="M502.3,80.96L502,70.6h-9.42C496.28,74.1,499.54,77.66,502.3,80.96z" class="st0"></path>
         <path d="M187.8,137.34l-14.15,9.88l-6.4-9.17c-10.22,6.82-20.83,14.36-31.84,22.73    c-13.83,12.01-30.68,26.03-48.64,45.53l0.63,21.78l159.86-91.71l93.12-65.79h-14.79c-29.88,6.76-77.9,16.99-143.82,58.09    L187.8,137.34z" class="st0"></path>
         <path d="M111.02,254.6l15.99-10.98l63.37-43.55l10.06-6.91v1.86h35.75v-13.49h13.49v3.54h11.2v-21.09h30.97v31.04h0    h0.07V138.2l14.2-9.78h14.49h38.75h41.25V121l-7.49-6.49h-9.99v-11.2h9.99V92.02h23.98h1.86v-3.35h44.75l16.49,16.27l0.22,26.19    l0.26,31.12l0.02,2.25l3.61,28.94l5.44,43.6l6.22,49.81l-1.07,6.64l13.21-10.34l-5.16-179.44c-6.62-10.94-17.04-23.27-32.63-33.11    H340.37l-93.12,65.79L87.39,228.1l1.34,46.74L111.02,254.6z" class="st1"></path>
         <path d="M507.94,354.87l-20.74-13.78l-0.71,4.57l-1.76,25.69l-2.23,32.51l-0.75,25.8h21.26    c1.19-15.57,2.21-29.05,2.58-34.24c0.64-8.95,2.36-38.53,3.79-68.93l-0.07-2.61L507.94,354.87z" class="st1"></path>
         <path d="M502.95,103.71l-0.3-10.44c-6-7.42-13.27-15.35-21.71-22.68h-10.62C485.91,80.44,496.33,92.77,502.95,103.71z    " class="st2"></path>
         <path d="M135.4,160.78c11.01-8.37,21.63-15.91,31.84-22.73l-15.72-22.51c-32.31,22.06-47.22,35.83-63.29,49.98    c-0.82,0.72-1.68,1.52-2.58,2.37l1.11,38.42C104.73,186.81,121.57,172.79,135.4,160.78z" class="st2"></path>
         <path d="M502.99,429.66h9.34l-2.97-103.18c-1.43,30.41-3.15,59.99-3.79,68.93    C505.2,400.62,504.19,414.09,502.99,429.66z" class="st2"></path>
         <path d="M502.65,93.27l-0.35-12.32c-2.76-3.29-6.02-6.85-9.72-10.36h-11.64C489.38,77.92,496.65,85.85,502.65,93.27z" class="st2"></path>
         <path d="M181.76,128.69c65.92-41.1,113.94-51.33,143.82-58.09h-89.24c-24.08,9.5-48.59,21.08-70.46,35.36    L181.76,128.69z" class="st2"></path>
         <path d="M200.44,211.49v0.07v6.64v39.61v8.21v39.39l-6.71,6.78h-31.62h-35.11h-37.2l3.38,117.47h323.93v-15.28v-6.71    v-4.01v-29.03v-3.28v-0.07V338.1l7.42-7.42h49.46l13.2,10.42l20.74,13.78l1.35-30.99l-1.17-40.73l-13.21,10.34l-20.62,16.91    h-49.74l-7.42-7.42v-36.97v-28.97v-11.2v-7.64v-6.78v-16.41v-1.57v-5.21v-25.98v-31.12v-2.71V121v-6.49v-11.2V92.02h-23.98v11.28    v11.2l7.49,6.49v7.42v2.71v31.12v25.98l-5.14,5.21l-1.57,1.57h-34.54h-0.64h-38.11h-28.69h-0.07h0h-30.97h-11.2h-0.02H236.2    h-35.75v16.41V211.49z M216.93,266.02v-8.21V218.2l6.57-6.64l0.14-0.14h34.43h33.74h33.74h33.9h34.47l6.71,6.78v7.64v11.2v28.97    v36.97v0.36l-8.78,8.85h-30.83h-25.98h0h-25.98h-25.98h-25.98h-33.47l-6.71-6.78V266.02z M205.22,328.6h25.98h25.91h0.07h25.91    h25.98h25.91h26.05h30.19l9.42,9.49v33.19v3.35v33.04l-6.71,6.71H379h-18.48h-18.48h-18.48h-18.48h-18.48H268.1h-18.48h-18.48    h-18.48h-18.48h-18.48H157.2h-18.48h-18.48H105.1l-6.78-6.71v-5.71v-27.33v-39.25l6.78-6.78h22.27h25.91h25.98H205.22z" class="st2"></path>
         <path d="M417.11,162.25h63.57l-0.26-31.12h-63.31V162.25z M425.43,137.95h48.99v16.26h-8.34v3.42h-40.65V137.95z" class="st3"></path>
         <path d="M417.11,114.5V121v7.42v2.71h63.31l-0.22-26.19l-16.49-16.27h-44.75v3.35h-1.86v11.28V114.5z M425.43,106.46    h40.65v3.42h8.34v16.26h-48.99V106.46z" class="st3"></path>
         <path d="M417.11,188.23v5.21h67.2l-3.61-28.94l-0.02-2.25h-63.57V188.23z M425.43,168.36h40.65v3.42h8.34v16.26    h-48.99V168.36z" class="st3"></path>
         <polygon points="417.11,237.04 417.11,266.02 417.11,302.98 417.47,303.34 424.53,310.41 474.28,310.41 494.9,293.49     495.97,286.85 489.75,237.04 427.1,237.04   " class="st3"></polygon>
         <polygon points="417.11,302.98 424.53,310.41 417.47,303.34   " class="st3"></polygon>
         <path d="M417.11,195.01v16.41v6.78v7.64h9.99v11.2h62.65l-5.44-43.6h-67.2V195.01z M425.43,200.13h48.99v16.26h-8.34    v3.42h-40.65V200.13z" class="st3"></path>
         <rect height="11.2" width="9.99" x="417.11" y="225.84" class="st4"></rect>
         <path d="M424.53,330.67l-7.42,7.42v33.19v0.07h67.6l1.76-25.69l0.71-4.57l-13.2-10.42H424.53z M474.37,363.21h-49.64    v-19.24l41.69-0.08v3.45l7.95,0.05L474.37,363.21z" class="st3"></path>
         <polygon points="417.11,374.63 417.11,403.67 482.48,403.67 417.11,403.67 417.11,407.68 417.11,414.39     417.11,429.66 481.73,429.66 482.48,403.86 484.72,371.35 417.11,371.35   " class="st3"></polygon>
         <polygon points="200.44,211.49 200.44,211.42 200.44,195.01 200.44,193.15 190.38,200.06 190.38,211.49   " class="st4"></polygon>
         <polygon points="162.12,257.81 200.44,257.81 200.44,218.2 200.44,211.56 200.44,211.49 190.38,211.49 190.38,200.06     127.01,243.61 127.01,257.81   " class="st3"></polygon>
         <rect height="54.38" width="35.11" x="127.01" y="257.81" class="st3"></rect>
         <polygon points="127.01,312.19 127.01,257.81 127.01,243.61 111.02,254.6 88.73,274.84 89.81,312.19   " class="st3"></polygon>
         <polygon points="193.73,312.19 200.44,305.41 200.44,266.02 200.44,257.81 162.12,257.81 162.12,312.19   " class="st3"></polygon>
         <polygon points="283.09,266.02 291.81,266.02 291.81,211.42 258.07,211.42 258.07,266.02   " class="st3"></polygon>
         <polygon points="258.07,266.02 258.07,211.42 223.64,211.42 216.93,218.2 216.93,257.81 216.93,266.02 257.11,266.02       " class="st3"></polygon>
         <polygon points="309.06,266.02 325.55,266.02 325.55,211.42 291.81,211.42 291.81,266.02   " class="st3"></polygon>
         <polygon points="335.04,266.02 359.45,266.02 359.45,211.42 325.55,211.42 325.55,266.02   " class="st3"></polygon>
         <polygon points="361.02,266.02 400.63,266.02 400.63,237.04 400.63,225.84 400.63,218.2 393.92,211.42 359.45,211.42     359.45,266.02   " class="st3"></polygon>
         <polygon points="262.02,304.46 262.02,271.65 283.09,271.65 283.09,266.02 258.07,266.02 257.11,266.02     257.11,312.19 283.09,312.19 283.09,304.46   " class="st3"></polygon>
         <path d="M361.02,312.19h30.83l1.71-1.78l7.07-7.07v-0.36v-36.97h-39.61V312.19z M366.18,271.65h26.48v28.73    l-4.09,4.09h-22.39V271.65z" class="st3"></path>
         <polygon points="391.85,312.19 400.63,303.34 393.56,310.41   " class="st3"></polygon>
         <path d="M257.11,312.19v-46.17h-40.18v39.39l6.71,6.78H257.11z M224.74,271.65h27.07v32.81h-24.99l-2.07-2.07V271.65z    " class="st3"></path>
         <polygon points="359.45,266.02 335.04,266.02 335.04,271.65 355.88,271.65 355.88,304.46 335.04,304.46     335.04,312.19 335.04,312.19 361.02,312.19 361.02,266.02   " class="st3"></polygon>
         <polygon points="314.12,304.46 314.12,271.65 335.04,271.65 335.04,266.02 325.55,266.02 309.06,266.02     309.06,312.19 335.04,312.19 335.04,304.46   " class="st3"></polygon>
         <polygon points="291.81,266.02 283.09,266.02 283.09,271.65 303.78,271.65 303.78,304.46 283.09,304.46     283.09,312.19 309.06,312.19 309.06,266.02   " class="st3"></polygon>
         <polygon points="249.67,185.05 249.69,185.05 249.69,181.52 236.2,181.52 236.2,195.01 249.67,195.01   " class="st4"></polygon>
         <rect height="9.95" width="11.2" x="249.69" y="185.05" class="st4"></rect>
         <rect height="9.95" width="0.02" x="249.67" y="185.05" class="st4"></rect>
         <polygon points="291.86,195.01 291.86,163.96 260.89,163.96 260.89,185.05 260.89,195.01   " class="st4"></polygon>
         <polygon points="320.62,128.42 306.14,128.42 291.93,138.2 291.93,195.01 320.62,195.01   " class="st3"></polygon>
         <polygon points="358.73,195.01 359.38,195.01 359.38,128.42 320.62,128.42 320.62,195.01   " class="st3"></polygon>
         <polygon points="393.92,195.01 400.63,188.23 400.63,162.25 400.63,131.13 400.63,128.42 359.38,128.42     359.38,195.01   " class="st3"></polygon>
         <rect height="11.2" width="9.99" x="383.14" y="103.3" class="st4"></rect>
         <polygon points="106.07,406.79 106.07,380.31 120.23,380.31 120.23,374.63 98.32,374.63 98.32,401.97 98.32,407.68     105.1,414.39 120.23,414.39 120.23,406.79   " class="st3"></polygon>
         <polygon points="127.36,374.63 120.23,374.63 120.23,380.31 133.34,380.31 133.34,406.79 120.23,406.79     120.23,414.39 138.71,414.39 138.71,374.63   " class="st3"></polygon>
         <polygon points="291.67,406.79 291.67,380.31 305.07,380.31 305.07,374.63 286.58,374.63 286.58,414.39     305.07,414.39 305.07,406.79   " class="st3"></polygon>
         <polygon points="283.09,374.63 268.1,374.63 268.1,380.31 281.41,380.31 281.41,406.79 268.1,406.79 268.1,414.39     286.58,414.39 286.58,374.63   " class="st3"></polygon>
         <polygon points="342.03,374.63 342.03,380.31 355.43,380.31 355.43,406.79 342.03,406.79 342.03,414.39     360.52,414.39 360.52,374.63   " class="st3"></polygon>
         <polygon points="309.06,374.63 305.07,374.63 305.07,380.31 318.47,380.31 318.47,406.79 305.07,406.79     305.07,414.39 323.55,414.39 323.55,374.63   " class="st3"></polygon>
         <polygon points="328.62,406.79 328.62,380.31 342.03,380.31 342.03,374.63 334.97,374.63 323.55,374.63     323.55,414.39 342.03,414.39 342.03,406.79   " class="st3"></polygon>
         <polygon points="143.56,406.79 143.56,380.31 157.2,380.31 157.2,374.63 153.27,374.63 138.71,374.63 138.71,414.39     157.2,414.39 157.2,406.79   " class="st3"></polygon>
         <polygon points="365.72,406.79 365.72,380.31 379,380.31 379,374.63 361.02,374.63 360.52,374.63 360.52,414.39     379,414.39 379,406.79   " class="st3"></polygon>
         <polygon points="379,380.31 392.53,380.31 392.53,406.79 379,406.79 379,414.39 393.92,414.39 400.63,407.68     400.63,374.63 379,374.63   " class="st3"></polygon>
         <polygon points="205.22,374.63 194.16,374.63 194.16,380.31 207.35,380.31 207.35,406.79 194.16,406.79     194.16,414.39 212.65,414.39 212.65,374.63   " class="st3"></polygon>
         <polygon points="254.6,406.79 254.6,380.31 268.1,380.31 268.1,374.63 257.18,374.63 249.61,374.63 249.61,414.39     268.1,414.39 268.1,406.79   " class="st3"></polygon>
         <polygon points="157.2,374.63 157.2,380.31 170.28,380.31 170.28,406.79 157.2,406.79 157.2,414.39 175.68,414.39     175.68,374.63   " class="st3"></polygon>
         <polygon points="180.54,406.79 180.54,380.31 194.16,380.31 194.16,374.63 179.25,374.63 175.68,374.63     175.68,414.39 194.16,414.39 194.16,406.79   " class="st3"></polygon>
         <polygon points="231.2,374.63 231.13,374.63 231.13,380.31 244.43,380.31 244.43,406.79 231.13,406.79 231.13,414.39     249.61,414.39 249.61,374.63   " class="st3"></polygon>
         <polygon points="217.62,406.79 217.62,380.31 231.13,380.31 231.13,374.63 212.65,374.63 212.65,414.39     231.13,414.39 231.13,406.79   " class="st3"></polygon>
         <polygon points="212.65,374.63 231.13,374.63 231.2,374.63 231.2,369.95 210.03,369.95 210.03,337.27 231.2,337.27     231.2,328.6 205.22,328.6 205.22,374.63   " class="st3"></polygon>
         <polygon points="157.2,374.63 175.68,374.63 179.25,374.63 179.25,369.95 158.03,369.95 158.03,337.27 179.25,337.27     179.25,328.6 153.27,328.6 153.27,374.63   " class="st3"></polygon>
         <polygon points="179.25,337.27 199.76,337.27 199.76,369.95 179.25,369.95 179.25,374.63 194.16,374.63     205.22,374.63 205.22,328.6 179.25,328.6   " class="st3"></polygon>
         <polygon points="147.79,337.27 147.79,369.95 127.36,369.95 127.36,374.63 138.71,374.63 153.27,374.63 153.27,328.6     127.36,328.6 127.36,337.27   " class="st3"></polygon>
         <polygon points="127.36,374.63 127.36,369.95 106.07,369.95 106.07,337.27 127.36,337.27 127.36,328.6 105.1,328.6     98.32,335.38 98.32,374.63 120.23,374.63   " class="st3"></polygon>
         <polygon points="251.75,337.27 251.75,369.95 231.2,369.95 231.2,374.63 249.61,374.63 257.18,374.63 257.18,328.6     257.11,328.6 231.2,328.6 231.2,337.27   " class="st3"></polygon>
         <polygon points="355.88,337.27 355.88,369.95 334.97,369.95 334.97,374.63 342.03,374.63 360.52,374.63     361.02,374.63 361.02,328.6 334.97,328.6 334.97,337.27   " class="st3"></polygon>
         <path d="M379,374.63h21.62v-3.35V338.1l-7.42-7.42l-2-2.07h-30.19v46.03H379z M366.12,337.27h21.92l4.48,4.62v28.07    h-26.41V337.27z" class="st3"></path>
         <polygon points="400.63,338.1 391.21,328.6 393.2,330.67   " class="st3"></polygon>
         <polygon points="323.55,374.63 334.97,374.63 334.97,369.95 314.16,369.95 314.16,337.27 334.97,337.27 334.97,328.6     309.06,328.6 309.06,374.63   " class="st3"></polygon>
         <polygon points="303.75,337.27 303.75,369.95 283.09,369.95 283.09,374.63 286.58,374.63 305.07,374.63     309.06,374.63 309.06,328.6 283.09,328.6 283.09,337.27   " class="st3"></polygon>
         <polygon points="268.1,374.63 283.09,374.63 283.09,369.95 262.03,369.95 262.03,337.27 283.09,337.27 283.09,328.6     257.18,328.6 257.18,374.63   " class="st3"></polygon>
         <polygon points="251.81,304.46 251.81,271.65 224.74,271.65 224.74,302.39 226.81,304.46   " class="st3"></polygon>
         <rect height="32.81" width="21.07" x="262.02" y="271.65" class="st3"></rect>
         <rect height="32.81" width="20.7" x="283.09" y="271.65" class="st3"></rect>
         <rect height="32.81" width="20.84" x="335.04" y="271.65" class="st3"></rect>
         <rect height="32.81" width="20.92" x="314.12" y="271.65" class="st3"></rect>
         <polygon points="392.65,300.38 392.65,271.65 366.18,271.65 366.18,304.46 388.57,304.46   " class="st3"></polygon>
         <polygon points="474.43,109.88 466.08,109.88 466.08,106.46 425.43,106.46 425.43,126.14 474.43,126.14   " class="st3"></polygon>
         <polygon points="474.43,171.78 466.08,171.78 466.08,168.36 425.43,168.36 425.43,188.04 474.43,188.04   " class="st3"></polygon>
         <polygon points="466.08,154.21 474.43,154.21 474.43,137.95 425.43,137.95 425.43,157.64 466.08,157.64   " class="st3"></polygon>
         <polygon points="466.08,216.39 474.43,216.39 474.43,200.13 425.43,200.13 425.43,219.81 466.08,219.81   " class="st3"></polygon>
         <polygon points="466.42,343.89 424.72,343.98 424.72,363.21 474.37,363.21 474.37,347.39 466.42,347.34   " class="st3"></polygon>
         <rect height="32.68" width="20.43" x="127.36" y="337.27" class="st3"></rect>
         <rect height="32.68" width="21.3" x="106.07" y="337.27" class="st3"></rect>
         <rect height="26.48" width="14.16" x="106.07" y="380.31" class="st3"></rect>
         <rect height="26.48" width="13.11" x="120.23" y="380.31" class="st3"></rect>
         <rect height="26.48" width="13.64" x="143.56" y="380.31" class="st3"></rect>
         <rect height="26.48" width="13.09" x="157.2" y="380.31" class="st3"></rect>
         <rect height="26.48" width="13.19" x="194.16" y="380.31" class="st3"></rect>
         <rect height="26.48" width="13.62" x="180.54" y="380.31" class="st3"></rect>
         <rect height="26.48" width="13.3" x="231.13" y="380.31" class="st3"></rect>
         <rect height="26.48" width="13.51" x="217.62" y="380.31" class="st3"></rect>
         <rect height="26.48" width="13.31" x="268.1" y="380.31" class="st3"></rect>
         <rect height="26.48" width="13.49" x="254.6" y="380.31" class="st3"></rect>
         <rect height="26.48" width="13.4" x="291.67" y="380.31" class="st3"></rect>
         <rect height="26.48" width="13.41" x="305.07" y="380.31" class="st3"></rect>
         <rect height="26.48" width="13.39" x="342.03" y="380.31" class="st3"></rect>
         <rect height="26.48" width="13.41" x="328.62" y="380.31" class="st3"></rect>
         <rect height="26.48" width="13.28" x="365.72" y="380.31" class="st3"></rect>
         <rect height="26.48" width="13.53" x="379" y="380.31" class="st3"></rect>
         <rect height="32.68" width="21.21" x="158.03" y="337.27" class="st3"></rect>
         <rect height="32.68" width="20.51" x="179.25" y="337.27" class="st3"></rect>
         <rect height="32.68" width="21.17" x="210.03" y="337.27" class="st3"></rect>
         <rect height="32.68" width="20.55" x="231.2" y="337.27" class="st3"></rect>
         <rect height="32.68" width="20.67" x="283.09" y="337.27" class="st3"></rect>
         <rect height="32.68" width="21.06" x="262.03" y="337.27" class="st3"></rect>
         <rect height="32.68" width="20.91" x="334.97" y="337.27" class="st3"></rect>
         <rect height="32.68" width="20.81" x="314.16" y="337.27" class="st3"></rect>
         <polygon points="392.53,341.88 388.05,337.27 366.12,337.27 366.12,369.95 392.53,369.95   " class="st3"></polygon>
         <path d="M165.88,105.95l-8.31-11.89l-14.15,9.88l8.1,11.6c4.34-2.96,8.98-6.07,13.99-9.35    C165.63,106.11,165.76,106.03,165.88,105.95z" class="st5"></path>
         <path d="M187.8,137.34l-6.04-8.65c-4.75,2.96-9.58,6.07-14.51,9.36l6.4,9.17L187.8,137.34z" class="st5"></path>
         <path d="M165.88,105.95c-0.12,0.08-0.25,0.16-0.37,0.24c-5.01,3.28-9.65,6.39-13.99,9.35l15.72,22.51    c4.93-3.29,9.77-6.4,14.51-9.36L165.88,105.95z" class="st5"></path>
      </g>
      <g>
         <g>
            <path d="M419.22,229.82h1.4c0.85,0,1.4,0.45,1.4,1.19v0.01c0,0.81-0.67,1.23-1.47,1.23h-0.91v1.32h-0.42V229.82z      M420.57,231.86c0.62,0,1.03-0.33,1.03-0.82v-0.01c0-0.54-0.4-0.81-1.01-0.81h-0.95v1.65H420.57z" class="st6"></path>
            <path d="M422.8,229.82h2.71v0.39h-2.29v1.28h2.05v0.38h-2.05v1.31h2.31v0.39h-2.74V229.82z" class="st6"></path>
         </g>
      </g>
      <g>
         <rect height="12.07" width="17.85" x="98.82" y="463.37" class="st7"></rect>
         <rect height="12.07" width="17.85" x="98.82" y="481.19" class="st8"></rect>
         <line x1="146.52" x2="240.16" y1="446.7" y2="446.7" class="st9"></line>
         <text transform="matrix(1 0 0 1 98.825 449.9251)" class="st10 st11">LEGEND</text>
         <text transform="matrix(1 0 0 1 124.5154 472.5591)">
            <tspan x="0" y="0" class="st12 st11">Detached Factories</tspan>
            <tspan x="0" y="18" class="st12 st11">Semi-Detached Factories</tspan>
         </text>
      </g>
      <text transform="matrix(1 0 0 1 212.6476 424.3727)" class="st13 st14 st15">JALAN CIPTA SERENIA 8B</text>
      <text transform="matrix(1 0 0 1 263.0587 322.0192)" class="st13 st14 st15">JALAN CIPTA SERENIA 8</text>
      <text transform="matrix(1 0 0 1 263.0587 205.2419)" class="st13 st14 st15">JALAN CIPTA SERENIA 8F</text>
      <text transform="matrix(0 1 -1 0 207.3489 213.4559)" class="st13 st14 st15">JALAN CIPTA SERENIA 8F</text>
      <text transform="matrix(0 1 -1 0 408.3841 157.6366)" class="st13 st14 st15">JALAN CIPTA SERENIA 8G</text>
      <text transform="matrix(0 1 -1 0 408.3841 341.6366)" class="st13 st14 st15">JALAN CIPTA SERENIA 8A</text>
      <text transform="matrix(1 0 0 1 191.567 208.5309)" class="st13 st14 st15">PE</text>
      <text transform="matrix(1 0 0 1 239.2812 192.1257)" class="st13 st14 st15">RP</text>
      <text transform="matrix(1 0 0 1 251.1979 192.1257)" class="st13 st14 st15">PE</text>
      <text transform="matrix(1 0 0 1 384.3645 111.2008)" class="st13 st14 st15">PE</text>
      <text transform="matrix(1 0 0 1 269.6145 183.2926)" class="st13 st14 st15">PPU</text>
      <g>
         <polygon points="505.79,445.35 497.13,460.35 505.79,456.68 514.45,460.35   " class="st16"></polygon>
         <g>
            <text transform="matrix(1 0 0 1 499.2466 480.2841)" class="st13 st14 st17">N</text>
         </g>
      </g>
   </g>
   <g id="SC_-_CU-1(b)/21" pin-x="103.275" pin-y="357.63" class="unit open none">
      <polygon id="SC_-_CU-1(b)/21_land" points="98.32,374.63 98.32,407.68 105.1,414.39 120.23,414.39    120.23,374.63  " class="land st18"></polygon>
      <g id="SC_-_CU-1(b)/21_text">
         <g>
            <rect height="7.73" transform="matrix(6.123234e-17 -1 1 6.123234e-17 -296.4411 523.0524)" width="5.59" x="110.51" y="405.88" class="st19"></rect>
            <text transform="matrix(1 0 0 1 110.6122 411.7847)" class="st14 st20">32</text>
         </g>
         <text transform="matrix(0 -1 1 0 114.4599 403.729)" class="st14 st21">SC-CU-1(b)-21</text>
         <text transform="matrix(1 0 0 1 111.8202 379.9732)" class="st14 st22">D</text>
      </g>
   </g>
   <g id="SC_-_CU-1(b)/20" pin-x="123.47" pin-y="357.63" class="unit open none">
      <polygon id="SC_-_CU-1(b)/20_land" points="127.36,374.63 120.23,374.63 120.23,414.39 138.71,414.39    138.71,374.63  " class="land st18"></polygon>
      <g id="SC_-_CU-1(b)/20_text">
         <g>
            <rect height="7.73" transform="matrix(6.123234e-17 -1 1 6.123234e-17 -280.2769 539.2166)" width="5.59" x="126.67" y="405.88" class="st19"></rect>
            <text transform="matrix(1 0 0 1 126.7765 411.7847)" class="st14 st20">30</text>
         </g>
         <text transform="matrix(0 -1 1 0 130.6241 403.729)" class="st14 st21">SC-CU-1(b)-20</text>
         <text transform="matrix(1 0 0 1 126.4483 379.9732)" class="st14 st22">DM</text>
      </g>
   </g>
   <g id="SC_-_CU-1(b)/19" pin-x="141.95499999999998" pin-y="357.63" class="unit open none">
      <polygon id="SC_-_CU-1(b)/19_land" points="153.27,374.63 138.71,374.63 138.71,414.39 157.2,414.39    157.2,374.63  " class="land st18"></polygon>
      <g id="SC_-_CU-1(b)/19_text">
         <g>
            <rect height="7.73" transform="matrix(6.123234e-17 -1 1 6.123234e-17 -261.255 558.2385)" width="5.59" x="145.7" y="405.88" class="st19"></rect>
            <text transform="matrix(1 0 0 1 145.7983 411.7847)" class="st14 st20">28</text>
         </g>
         <text transform="matrix(0 -1 1 0 149.646 403.729)" class="st14 st21">SC-CU-1(b)-19</text>
         <text transform="matrix(1 0 0 1 147.0063 379.9732)" class="st14 st22">D</text>
      </g>
   </g>
   <g id="SC_-_CU-1(b)/18" pin-x="160.44" pin-y="357.63" class="unit open none">
      <rect height="39.75" id="SC_-_CU-1(b)/18_land" width="18.48" x="157.2" y="374.63" class="land st18"></rect>
      <g id="SC_-_CU-1(b)/18_text">
         <g>
            <rect height="7.73" transform="matrix(6.123234e-17 -1 1 6.123234e-17 -243.5781 575.9153)" width="5.59" x="163.37" y="405.88" class="st19"></rect>
            <text transform="matrix(1 0 0 1 163.4752 411.7847)" class="st14 st20">26</text>
         </g>
         <text transform="matrix(0 -1 1 0 167.3229 403.729)" class="st14 st21">SC-CU-1(b)-18</text>
         <text transform="matrix(1 0 0 1 163.1471 379.9732)" class="st14 st22">DM</text>
      </g>
   </g>
   <g id="SC_-_CU-1(b)/17" pin-x="178.92000000000002" pin-y="357.63" class="unit open none">
      <polygon id="SC_-_CU-1(b)/17_land" points="179.25,374.63 175.68,374.63 175.68,414.39 194.16,414.39    194.16,374.63  " class="land st18"></polygon>
      <g id="SC_-_CU-1(b)/17_text">
         <g>
            <rect height="7.73" transform="matrix(6.123234e-17 -1 1 6.123234e-17 -224.5563 594.9372)" width="5.59" x="182.39" y="405.88" class="st19"></rect>
            <text transform="matrix(1 0 0 1 182.209 410.9351)" class="st14 st23">22A</text>
         </g>
         <text transform="matrix(0 -1 1 0 186.3447 403.729)" class="st14 st21">SC-CU-1(b)-17</text>
         <text transform="matrix(1 0 0 1 183.7051 379.9732)" class="st14 st22">D</text>
      </g>
   </g>
   <g id="SC_-_CU-1(b)/16" pin-x="197.405" pin-y="357.63" class="unit open none">
      <polygon id="SC_-_CU-1(b)/16_land" points="205.22,374.63 194.16,374.63 194.16,414.39 212.65,414.39    212.65,374.63  " class="land st18"></polygon>
      <g id="SC_-_CU-1(b)/16_text">
         <g>
            <rect height="7.73" transform="matrix(6.123234e-17 -1 1 6.123234e-17 -206.6104 612.8831)" width="5.59" x="200.34" y="405.88" class="st19"></rect>
            <text transform="matrix(1 0 0 1 200.4429 411.7847)" class="st14 st20">22</text>
         </g>
         <text transform="matrix(0 -1 1 0 204.2906 403.729)" class="st14 st21">SC-CU-1(b)-16</text>
         <text transform="matrix(1 0 0 1 200.1148 379.9732)" class="st14 st22">DM</text>
      </g>
   </g>
   <g id="SC_-_CU-1(b)/15" pin-x="215.89000000000001" pin-y="357.63" class="unit open none">
      <rect height="39.75" id="SC_-_CU-1(b)/15_land" width="18.48" x="212.65" y="374.63" class="land st18"></rect>
      <g id="SC_-_CU-1(b)/15_text">
         <g>
            <rect height="7.73" transform="matrix(6.123234e-17 -1 1 6.123234e-17 -187.5886 631.9049)" width="5.59" x="219.36" y="405.88" class="st19"></rect>
            <g>
               <text transform="matrix(1 0 0 1 219.4648 411.7844)" class="st14 st20">20</text>
            </g>
         </g>
         <text transform="matrix(0 -1 1 0 223.3124 403.729)" class="st14 st21">SC-CU-1(b)-15</text>
         <text transform="matrix(1 0 0 1 220.6728 379.9732)" class="st14 st22">D</text>
      </g>
   </g>
   <g id="SC_-_CU-1(b)/14" pin-x="234.37" pin-y="357.63" class="unit open none">
      <polygon id="SC_-_CU-1(b)/14_land" points="231.2,374.63 231.13,374.63 231.13,414.39 249.61,414.39    249.61,374.63  " class="land st18"></polygon>
      <g id="SC_-_CU-1(b)/14_text">
         <g>
            <rect height="7.73" transform="matrix(6.123234e-17 -1 1 6.123234e-17 -169.1039 650.3896)" width="5.59" x="237.85" y="405.88" class="st19"></rect>
            <text transform="matrix(1 0 0 1 237.9494 411.7847)" class="st14 st20">18</text>
         </g>
         <text transform="matrix(0 -1 1 0 241.7971 403.729)" class="st14 st21">SC-CU-1(b)-14</text>
         <text transform="matrix(1 0 0 1 237.6213 379.9732)" class="st14 st22">DM</text>
      </g>
   </g>
   <g id="SC_-_CU-1(b)/13" pin-x="252.85500000000002" pin-y="357.63" class="unit open none">
      <polygon id="SC_-_CU-1(b)/13_land" points="257.18,374.63 249.61,374.63 249.61,414.39 268.1,414.39    268.1,374.63  " class="land st18"></polygon>
      <g id="SC_-_CU-1(b)/13_text">
         <g>
            <rect height="7.73" transform="matrix(6.123234e-17 -1 1 6.123234e-17 -150.082 669.4114)" width="5.59" x="256.87" y="405.88" class="st19"></rect>
            <g>
               <text transform="matrix(1 0 0 1 256.9713 411.7844)" class="st14 st20">16</text>
            </g>
         </g>
         <text transform="matrix(0 -1 1 0 260.8189 403.729)" class="st14 st21">SC-CU-1(b)-13</text>
         <text transform="matrix(1 0 0 1 258.1793 379.9732)" class="st14 st22">D</text>
      </g>
   </g>
   <g id="SC_-_CU-1(b)/12" pin-x="271.34000000000003" pin-y="357.63" class="unit open none">
      <polygon id="SC_-_CU-1(b)/12_land" points="283.09,374.63 268.1,374.63 268.1,414.39 286.58,414.39    286.58,374.63  " class="land st18"></polygon>
      <g id="SC_-_CU-1(b)/12_text">
         <g>
            <rect height="7.73" transform="matrix(6.123234e-17 -1 1 6.123234e-17 -132.8126 686.6808)" width="5.59" x="274.14" y="405.88" class="st19"></rect>
            <text transform="matrix(1 0 0 1 273.5424 411.3775)" class="st24 st14 st25">12A</text>
         </g>
         <text transform="matrix(0 -1 1 0 278.0883 403.729)" class="st14 st21">SC-CU-1(b)-12</text>
         <text transform="matrix(1 0 0 1 273.9126 379.9732)" class="st14 st22">DM</text>
      </g>
   </g>
   <g id="SC_-_CU-1(b)/11" pin-x="289.82" pin-y="357.63" class="unit open none">
      <rect height="39.75" id="SC_-_CU-1(b)/11_land" width="18.48" x="286.58" y="374.63" class="land st18"></rect>
      <g id="SC_-_CU-1(b)/11_text">
         <g>
            <rect height="7.73" transform="matrix(6.123234e-17 -1 1 6.123234e-17 -113.7908 705.7027)" width="5.59" x="293.16" y="405.88" class="st19"></rect>
            <g>
               <text transform="matrix(1 0 0 1 293.2625 411.7844)" class="st14 st20">12</text>
            </g>
         </g>
         <text transform="matrix(0 -1 1 0 297.1102 403.729)" class="st14 st21">SC-CU-1(b)-11</text>
         <text transform="matrix(1 0 0 1 294.4706 379.9732)" class="st14 st22">D</text>
      </g>
   </g>
   <g id="SC_-_CU-1(b)/10" pin-x="308.31" pin-y="357.63" class="unit open none">
      <polygon id="SC_-_CU-1(b)/10_land" points="309.06,374.63 305.07,374.63 305.07,414.39 323.55,414.39    323.55,374.63  " class="land st18"></polygon>
      <g id="SC_-_CU-1(b)/10_text">
         <g>
            <rect height="7.73" transform="matrix(6.123234e-17 -1 1 6.123234e-17 -95.7933 723.7001)" width="5.59" x="311.16" y="405.88" class="st19"></rect>
            <g>
               <text transform="matrix(1 0 0 1 311.34 411.7841)" class="st14 st20">10</text>
            </g>
         </g>
         <text transform="matrix(0 -1 1 0 315.1076 403.729)" class="st14 st21">SC-CU-1(b)-10</text>
         <text transform="matrix(1 0 0 1 310.9319 379.9732)" class="st14 st22">DM</text>
      </g>
   </g>
   <g id="SC_-_CU-1(b)/09" pin-x="326.78999999999996" pin-y="357.63" class="unit open none">
      <polygon id="SC_-_CU-1(b)/09_land" points="334.97,374.63 323.55,374.63 323.55,414.39 342.03,414.39    342.03,374.63  " class="land st18"></polygon>
      <g id="SC_-_CU-1(b)/09_text">
         <g>
            <rect height="7.73" transform="matrix(6.123234e-17 -1 1 6.123234e-17 -76.7715 742.722)" width="5.59" x="330.18" y="405.88" class="st19"></rect>
            <g>
               <text transform="matrix(1 0 0 1 331.5709 411.7844)" class="st14 st20">8</text>
            </g>
         </g>
         <text transform="matrix(0 -1 1 0 334.1295 403.729)" class="st14 st21">SC-CU-1(b)-09</text>
         <text transform="matrix(1 0 0 1 331.4898 379.9732)" class="st14 st22">D</text>
      </g>
   </g>
   <g id="SC_-_CU-1(b)/08" pin-x="345.27" pin-y="357.63" class="unit open none">
      <rect height="39.75" id="SC_-_CU-1(b)/08_land" width="18.48" x="342.03" y="374.63" class="land st18"></rect>
      <g id="SC_-_CU-1(b)/08_text">
         <g>
            <rect height="7.73" transform="matrix(6.123234e-17 -1 1 6.123234e-17 -58.7396 760.7539)" width="5.59" x="348.21" y="405.88" class="st19"></rect>
            <g>
               <text transform="matrix(1 0 0 1 349.6829 411.7841)" class="st14 st20">6</text>
            </g>
         </g>
         <text transform="matrix(0 -1 1 0 352.1614 403.729)" class="st14 st21">SC-CU-1(b)-08</text>
         <text transform="matrix(1 0 0 1 347.9856 379.9732)" class="st14 st22">DM</text>
      </g>
   </g>
   <g id="SC_-_CU-1(b)/07" pin-x="363.76" pin-y="357.63" class="unit open none">
      <polygon id="SC_-_CU-1(b)/07_land" points="361.02,374.63 360.52,374.63 360.52,414.39 379,414.39    379,374.63  " class="land st18"></polygon>
      <g id="SC_-_CU-1(b)/07_text">
         <g>
            <rect height="7.73" transform="matrix(6.123234e-17 -1 1 6.123234e-17 -39.7177 779.7758)" width="5.59" x="367.23" y="405.88" class="st19"></rect>
            <g>
               <text transform="matrix(1 0 0 1 367.0866 411.7844)" class="st14 st20">2A</text>
            </g>
         </g>
         <text transform="matrix(0 -1 1 0 371.1833 403.729)" class="st14 st21">SC-CU-1(b)-07</text>
         <text transform="matrix(1 0 0 1 368.5436 379.9732)" class="st14 st22">D</text>
      </g>
   </g>
   <g id="SC_-_CU-1(b)/06" pin-x="383.815" pin-y="357.63" class="unit open none">
      <polygon id="SC_-_CU-1(b)/06_land" points="379,374.63 379,414.39 393.92,414.39 400.63,407.68    400.63,374.63  " class="land st18"></polygon>
      <g id="SC_-_CU-1(b)/06_text">
         <g>
            <rect height="7.73" transform="matrix(6.123234e-17 -1 1 6.123234e-17 -22.0089 797.4846)" width="5.59" x="384.94" y="405.88" class="st19"></rect>
            <g>
               <text transform="matrix(1 0 0 1 386.4135 411.7841)" class="st14 st20">2</text>
            </g>
         </g>
         <text transform="matrix(0 -1 1 0 388.8921 403.729)" class="st14 st21">SC-CU-1(b)-06</text>
         <text transform="matrix(1 0 0 1 384.7163 379.9732)" class="st14 st22">DM</text>
      </g>
   </g>
   <g id="SC_-_CU-1(b)/05" pin-x="446.15" pin-y="313.67" class="unit open none">
      <polygon id="SC_-_CU-1(b)/05_land" points="486.48,345.66 487.19,341.09 473.99,330.67 424.53,330.67    417.11,338.1 417.11,371.35 484.72,371.35  " class="land st26"></polygon>
      <g id="SC_-_CU-1(b)/05_text">
         <g>
            <rect height="12.55" width="9.08" x="420" y="347.87" class="st27"></rect>
            <text transform="matrix(1 0 0 1 422.4472 356.8053)" class="st14 st28">1</text>
         </g>
         <text transform="matrix(1 0 0 1 435.0786 356.0208)" class="st14 st29">SC-CU-1(b)-05</text>
         <text transform="matrix(1 0 0 1 470.9373 356.0846)" class="st14 st30">A1</text>
      </g>
   </g>
   <g id="SC_-_CU-1(b)/04" pin-x="447.43" pin-y="176.44" class="unit open none">
      <polygon id="SC_-_CU-1(b)/04_land" points="484.31,193.44 417.11,193.44 417.11,225.84 427.1,225.84    427.1,237.04 489.75,237.04  " class="land st26"></polygon>
      <g id="SC_-_CU-1(b)/04_text">
         <g>
            <rect height="12.55" width="9.08" x="420" y="205.24" class="st27"></rect>
            <text transform="matrix(1 0 0 1 422.8635 214.1745)" class="st14 st28">2</text>
         </g>
         <text transform="matrix(1 0 0 1 435.0781 213.391)" class="st14 st29">SC-CU-1(b)-04</text>
         <text transform="matrix(1 0 0 1 472.5289 213.4557)" class="st14 st30">A</text>
      </g>
   </g>
   <g id="SC_-_CU-1(b)/03" pin-x="444.71000000000004" pin-y="145.25" class="unit open none">
      <polygon id="SC_-_CU-1(b)/03_land" points="480.7,164.5 480.68,162.25 417.11,162.25 417.11,193.44    484.31,193.44  " class="land st26"></polygon>
      <g id="SC_-_CU-1(b)/03_text">
         <g>
            <rect height="12.55" width="9.08" x="420" y="173.72" class="st27"></rect>
            <text transform="matrix(1 0 0 1 421.2603 181.4892)" class="st14 st31">2A</text>
         </g>
         <text transform="matrix(1 0 0 1 435.0786 181.8744)" class="st14 st29">SC-CU-1(b)-03</text>
         <text transform="matrix(1 0 0 1 470.0353 181.9382)" class="st14 st30">AM</text>
      </g>
   </g>
   <g id="SC_-_CU-1(b)/02" pin-x="442.895" pin-y="114.13" class="unit open none">
      <polygon id="SC_-_CU-1(b)/02_land" points="480.42,131.13 417.11,131.13 417.11,162.25 480.68,162.25  " class="land st26"></polygon>
      <g id="SC_-_CU-1(b)/02_text">
         <g>
            <rect height="12.55" width="9.08" x="420" y="142.21" class="st27"></rect>
            <text transform="matrix(1 0 0 1 422.4468 151.1413)" class="st14 st28">6</text>
         </g>
         <text transform="matrix(1 0 0 1 435.0786 150.3578)" class="st14 st29">SC-CU-1(b)-02</text>
         <text transform="matrix(1 0 0 1 472.5289 150.4225)" class="st14 st30">A</text>
      </g>
   </g>
   <g id="SC_-_CU-1(b)/01" pin-x="442.765" pin-y="71.67" class="unit open none">
      <polygon id="SC_-_CU-1(b)/01_land" points="480.2,104.94 463.71,88.67 418.97,88.67 418.97,92.02    417.11,92.02 417.11,131.13 480.42,131.13  " class="land st26"></polygon>
      <g id="SC_-_CU-1(b)/01_text">
         <g>
            <rect height="12.55" width="9.08" x="420" y="110.69" class="st27"></rect>
            <text transform="matrix(1 0 0 1 422.4468 119.5417)" class="st14 st28">8</text>
         </g>
         <text transform="matrix(1 0 0 1 435.0791 118.8412)" class="st14 st29">SC-CU-1(b)-01</text>
         <text transform="matrix(1 0 0 1 470.0353 118.9049)" class="st14 st30">AM</text>
      </g>
   </g>
   <g fill-rule="nonzero" id="SC_-_CU-1(b)/21_pin" transform="matrix(1 0 0 1 103.275 357.63)" class="pin">
      <path d="M6.94981132,0 C3.11777358,0 0,3.12146636 0,6.95816406 C0,7.91013062 0.189132075,8.83326574 0.563169811,9.70455717 C0.623132075,9.8434242 0.687320755,9.97911714 0.753358491,10.1092554 L6.94981132,23.245283 L13.0873585,10.2224651 C13.618566,9.22341597 13.8993585,8.09475763 13.8993585,6.95816406 C13.8996226,3.12120184 10.7818491,0 6.94981132,0 Z" fill="#ED3435" fill-opacity="0.9" stroke="#D9330A"></path>
      <path d="M6.99990749,3.16981132 C5.17924873,3.16981132 3.69811321,4.65090534 3.69811321,6.4715131 C3.69811321,8.29230587 5.17924873,9.77358491 6.99990749,9.77358491 C8.82056626,9.77358491 10.3018868,8.29230587 10.3018868,6.4715131 C10.3018868,4.65109035 8.82056626,3.16981132 6.99990749,3.16981132 Z" fill="#000000" fill-opacity="0.6"></path>
   </g>
   <g fill-rule="nonzero" id="SC_-_CU-1(b)/20_pin" transform="matrix(1 0 0 1 123.47 357.63)" class="pin">
      <path d="M6.94981132,0 C3.11777358,0 0,3.12146636 0,6.95816406 C0,7.91013062 0.189132075,8.83326574 0.563169811,9.70455717 C0.623132075,9.8434242 0.687320755,9.97911714 0.753358491,10.1092554 L6.94981132,23.245283 L13.0873585,10.2224651 C13.618566,9.22341597 13.8993585,8.09475763 13.8993585,6.95816406 C13.8996226,3.12120184 10.7818491,0 6.94981132,0 Z" fill="#ED3435" fill-opacity="0.9" stroke="#D9330A"></path>
      <path d="M6.99990749,3.16981132 C5.17924873,3.16981132 3.69811321,4.65090534 3.69811321,6.4715131 C3.69811321,8.29230587 5.17924873,9.77358491 6.99990749,9.77358491 C8.82056626,9.77358491 10.3018868,8.29230587 10.3018868,6.4715131 C10.3018868,4.65109035 8.82056626,3.16981132 6.99990749,3.16981132 Z" fill="#000000" fill-opacity="0.6"></path>
   </g>
   <g fill-rule="nonzero" id="SC_-_CU-1(b)/19_pin" transform="matrix(1 0 0 1 141.95499999999998 357.63)" class="pin">
      <path d="M6.94981132,0 C3.11777358,0 0,3.12146636 0,6.95816406 C0,7.91013062 0.189132075,8.83326574 0.563169811,9.70455717 C0.623132075,9.8434242 0.687320755,9.97911714 0.753358491,10.1092554 L6.94981132,23.245283 L13.0873585,10.2224651 C13.618566,9.22341597 13.8993585,8.09475763 13.8993585,6.95816406 C13.8996226,3.12120184 10.7818491,0 6.94981132,0 Z" fill="#ED3435" fill-opacity="0.9" stroke="#D9330A"></path>
      <path d="M6.99990749,3.16981132 C5.17924873,3.16981132 3.69811321,4.65090534 3.69811321,6.4715131 C3.69811321,8.29230587 5.17924873,9.77358491 6.99990749,9.77358491 C8.82056626,9.77358491 10.3018868,8.29230587 10.3018868,6.4715131 C10.3018868,4.65109035 8.82056626,3.16981132 6.99990749,3.16981132 Z" fill="#000000" fill-opacity="0.6"></path>
   </g>
   <g fill-rule="nonzero" id="SC_-_CU-1(b)/18_pin" transform="matrix(1 0 0 1 160.44 357.63)" class="pin">
      <path d="M6.94981132,0 C3.11777358,0 0,3.12146636 0,6.95816406 C0,7.91013062 0.189132075,8.83326574 0.563169811,9.70455717 C0.623132075,9.8434242 0.687320755,9.97911714 0.753358491,10.1092554 L6.94981132,23.245283 L13.0873585,10.2224651 C13.618566,9.22341597 13.8993585,8.09475763 13.8993585,6.95816406 C13.8996226,3.12120184 10.7818491,0 6.94981132,0 Z" fill="#ED3435" fill-opacity="0.9" stroke="#D9330A"></path>
      <path d="M6.99990749,3.16981132 C5.17924873,3.16981132 3.69811321,4.65090534 3.69811321,6.4715131 C3.69811321,8.29230587 5.17924873,9.77358491 6.99990749,9.77358491 C8.82056626,9.77358491 10.3018868,8.29230587 10.3018868,6.4715131 C10.3018868,4.65109035 8.82056626,3.16981132 6.99990749,3.16981132 Z" fill="#000000" fill-opacity="0.6"></path>
   </g>
   <g fill-rule="nonzero" id="SC_-_CU-1(b)/17_pin" transform="matrix(1 0 0 1 178.92000000000002 357.63)" class="pin">
      <path d="M6.94981132,0 C3.11777358,0 0,3.12146636 0,6.95816406 C0,7.91013062 0.189132075,8.83326574 0.563169811,9.70455717 C0.623132075,9.8434242 0.687320755,9.97911714 0.753358491,10.1092554 L6.94981132,23.245283 L13.0873585,10.2224651 C13.618566,9.22341597 13.8993585,8.09475763 13.8993585,6.95816406 C13.8996226,3.12120184 10.7818491,0 6.94981132,0 Z" fill="#ED3435" fill-opacity="0.9" stroke="#D9330A"></path>
      <path d="M6.99990749,3.16981132 C5.17924873,3.16981132 3.69811321,4.65090534 3.69811321,6.4715131 C3.69811321,8.29230587 5.17924873,9.77358491 6.99990749,9.77358491 C8.82056626,9.77358491 10.3018868,8.29230587 10.3018868,6.4715131 C10.3018868,4.65109035 8.82056626,3.16981132 6.99990749,3.16981132 Z" fill="#000000" fill-opacity="0.6"></path>
   </g>
   <g fill-rule="nonzero" id="SC_-_CU-1(b)/16_pin" transform="matrix(1 0 0 1 197.405 357.63)" class="pin">
      <path d="M6.94981132,0 C3.11777358,0 0,3.12146636 0,6.95816406 C0,7.91013062 0.189132075,8.83326574 0.563169811,9.70455717 C0.623132075,9.8434242 0.687320755,9.97911714 0.753358491,10.1092554 L6.94981132,23.245283 L13.0873585,10.2224651 C13.618566,9.22341597 13.8993585,8.09475763 13.8993585,6.95816406 C13.8996226,3.12120184 10.7818491,0 6.94981132,0 Z" fill="#ED3435" fill-opacity="0.9" stroke="#D9330A"></path>
      <path d="M6.99990749,3.16981132 C5.17924873,3.16981132 3.69811321,4.65090534 3.69811321,6.4715131 C3.69811321,8.29230587 5.17924873,9.77358491 6.99990749,9.77358491 C8.82056626,9.77358491 10.3018868,8.29230587 10.3018868,6.4715131 C10.3018868,4.65109035 8.82056626,3.16981132 6.99990749,3.16981132 Z" fill="#000000" fill-opacity="0.6"></path>
   </g>
   <g fill-rule="nonzero" id="SC_-_CU-1(b)/15_pin" transform="matrix(1 0 0 1 215.89000000000001 357.63)" class="pin">
      <path d="M6.94981132,0 C3.11777358,0 0,3.12146636 0,6.95816406 C0,7.91013062 0.189132075,8.83326574 0.563169811,9.70455717 C0.623132075,9.8434242 0.687320755,9.97911714 0.753358491,10.1092554 L6.94981132,23.245283 L13.0873585,10.2224651 C13.618566,9.22341597 13.8993585,8.09475763 13.8993585,6.95816406 C13.8996226,3.12120184 10.7818491,0 6.94981132,0 Z" fill="#ED3435" fill-opacity="0.9" stroke="#D9330A"></path>
      <path d="M6.99990749,3.16981132 C5.17924873,3.16981132 3.69811321,4.65090534 3.69811321,6.4715131 C3.69811321,8.29230587 5.17924873,9.77358491 6.99990749,9.77358491 C8.82056626,9.77358491 10.3018868,8.29230587 10.3018868,6.4715131 C10.3018868,4.65109035 8.82056626,3.16981132 6.99990749,3.16981132 Z" fill="#000000" fill-opacity="0.6"></path>
   </g>
   <g fill-rule="nonzero" id="SC_-_CU-1(b)/14_pin" transform="matrix(1 0 0 1 234.37 357.63)" class="pin">
      <path d="M6.94981132,0 C3.11777358,0 0,3.12146636 0,6.95816406 C0,7.91013062 0.189132075,8.83326574 0.563169811,9.70455717 C0.623132075,9.8434242 0.687320755,9.97911714 0.753358491,10.1092554 L6.94981132,23.245283 L13.0873585,10.2224651 C13.618566,9.22341597 13.8993585,8.09475763 13.8993585,6.95816406 C13.8996226,3.12120184 10.7818491,0 6.94981132,0 Z" fill="#ED3435" fill-opacity="0.9" stroke="#D9330A"></path>
      <path d="M6.99990749,3.16981132 C5.17924873,3.16981132 3.69811321,4.65090534 3.69811321,6.4715131 C3.69811321,8.29230587 5.17924873,9.77358491 6.99990749,9.77358491 C8.82056626,9.77358491 10.3018868,8.29230587 10.3018868,6.4715131 C10.3018868,4.65109035 8.82056626,3.16981132 6.99990749,3.16981132 Z" fill="#000000" fill-opacity="0.6"></path>
   </g>
   <g fill-rule="nonzero" id="SC_-_CU-1(b)/13_pin" transform="matrix(1 0 0 1 252.85500000000002 357.63)" class="pin">
      <path d="M6.94981132,0 C3.11777358,0 0,3.12146636 0,6.95816406 C0,7.91013062 0.189132075,8.83326574 0.563169811,9.70455717 C0.623132075,9.8434242 0.687320755,9.97911714 0.753358491,10.1092554 L6.94981132,23.245283 L13.0873585,10.2224651 C13.618566,9.22341597 13.8993585,8.09475763 13.8993585,6.95816406 C13.8996226,3.12120184 10.7818491,0 6.94981132,0 Z" fill="#ED3435" fill-opacity="0.9" stroke="#D9330A"></path>
      <path d="M6.99990749,3.16981132 C5.17924873,3.16981132 3.69811321,4.65090534 3.69811321,6.4715131 C3.69811321,8.29230587 5.17924873,9.77358491 6.99990749,9.77358491 C8.82056626,9.77358491 10.3018868,8.29230587 10.3018868,6.4715131 C10.3018868,4.65109035 8.82056626,3.16981132 6.99990749,3.16981132 Z" fill="#000000" fill-opacity="0.6"></path>
   </g>
   <g fill-rule="nonzero" id="SC_-_CU-1(b)/12_pin" transform="matrix(1 0 0 1 271.34000000000003 357.63)" class="pin">
      <path d="M6.94981132,0 C3.11777358,0 0,3.12146636 0,6.95816406 C0,7.91013062 0.189132075,8.83326574 0.563169811,9.70455717 C0.623132075,9.8434242 0.687320755,9.97911714 0.753358491,10.1092554 L6.94981132,23.245283 L13.0873585,10.2224651 C13.618566,9.22341597 13.8993585,8.09475763 13.8993585,6.95816406 C13.8996226,3.12120184 10.7818491,0 6.94981132,0 Z" fill="#ED3435" fill-opacity="0.9" stroke="#D9330A"></path>
      <path d="M6.99990749,3.16981132 C5.17924873,3.16981132 3.69811321,4.65090534 3.69811321,6.4715131 C3.69811321,8.29230587 5.17924873,9.77358491 6.99990749,9.77358491 C8.82056626,9.77358491 10.3018868,8.29230587 10.3018868,6.4715131 C10.3018868,4.65109035 8.82056626,3.16981132 6.99990749,3.16981132 Z" fill="#000000" fill-opacity="0.6"></path>
   </g>
   <g fill-rule="nonzero" id="SC_-_CU-1(b)/11_pin" transform="matrix(1 0 0 1 289.82 357.63)" class="pin">
      <path d="M6.94981132,0 C3.11777358,0 0,3.12146636 0,6.95816406 C0,7.91013062 0.189132075,8.83326574 0.563169811,9.70455717 C0.623132075,9.8434242 0.687320755,9.97911714 0.753358491,10.1092554 L6.94981132,23.245283 L13.0873585,10.2224651 C13.618566,9.22341597 13.8993585,8.09475763 13.8993585,6.95816406 C13.8996226,3.12120184 10.7818491,0 6.94981132,0 Z" fill="#ED3435" fill-opacity="0.9" stroke="#D9330A"></path>
      <path d="M6.99990749,3.16981132 C5.17924873,3.16981132 3.69811321,4.65090534 3.69811321,6.4715131 C3.69811321,8.29230587 5.17924873,9.77358491 6.99990749,9.77358491 C8.82056626,9.77358491 10.3018868,8.29230587 10.3018868,6.4715131 C10.3018868,4.65109035 8.82056626,3.16981132 6.99990749,3.16981132 Z" fill="#000000" fill-opacity="0.6"></path>
   </g>
   <g fill-rule="nonzero" id="SC_-_CU-1(b)/10_pin" transform="matrix(1 0 0 1 308.31 357.63)" class="pin">
      <path d="M6.94981132,0 C3.11777358,0 0,3.12146636 0,6.95816406 C0,7.91013062 0.189132075,8.83326574 0.563169811,9.70455717 C0.623132075,9.8434242 0.687320755,9.97911714 0.753358491,10.1092554 L6.94981132,23.245283 L13.0873585,10.2224651 C13.618566,9.22341597 13.8993585,8.09475763 13.8993585,6.95816406 C13.8996226,3.12120184 10.7818491,0 6.94981132,0 Z" fill="#ED3435" fill-opacity="0.9" stroke="#D9330A"></path>
      <path d="M6.99990749,3.16981132 C5.17924873,3.16981132 3.69811321,4.65090534 3.69811321,6.4715131 C3.69811321,8.29230587 5.17924873,9.77358491 6.99990749,9.77358491 C8.82056626,9.77358491 10.3018868,8.29230587 10.3018868,6.4715131 C10.3018868,4.65109035 8.82056626,3.16981132 6.99990749,3.16981132 Z" fill="#000000" fill-opacity="0.6"></path>
   </g>
   <g fill-rule="nonzero" id="SC_-_CU-1(b)/09_pin" transform="matrix(1 0 0 1 326.78999999999996 357.63)" class="pin">
      <path d="M6.94981132,0 C3.11777358,0 0,3.12146636 0,6.95816406 C0,7.91013062 0.189132075,8.83326574 0.563169811,9.70455717 C0.623132075,9.8434242 0.687320755,9.97911714 0.753358491,10.1092554 L6.94981132,23.245283 L13.0873585,10.2224651 C13.618566,9.22341597 13.8993585,8.09475763 13.8993585,6.95816406 C13.8996226,3.12120184 10.7818491,0 6.94981132,0 Z" fill="#ED3435" fill-opacity="0.9" stroke="#D9330A"></path>
      <path d="M6.99990749,3.16981132 C5.17924873,3.16981132 3.69811321,4.65090534 3.69811321,6.4715131 C3.69811321,8.29230587 5.17924873,9.77358491 6.99990749,9.77358491 C8.82056626,9.77358491 10.3018868,8.29230587 10.3018868,6.4715131 C10.3018868,4.65109035 8.82056626,3.16981132 6.99990749,3.16981132 Z" fill="#000000" fill-opacity="0.6"></path>
   </g>
   <g fill-rule="nonzero" id="SC_-_CU-1(b)/08_pin" transform="matrix(1 0 0 1 345.27 357.63)" class="pin">
      <path d="M6.94981132,0 C3.11777358,0 0,3.12146636 0,6.95816406 C0,7.91013062 0.189132075,8.83326574 0.563169811,9.70455717 C0.623132075,9.8434242 0.687320755,9.97911714 0.753358491,10.1092554 L6.94981132,23.245283 L13.0873585,10.2224651 C13.618566,9.22341597 13.8993585,8.09475763 13.8993585,6.95816406 C13.8996226,3.12120184 10.7818491,0 6.94981132,0 Z" fill="#ED3435" fill-opacity="0.9" stroke="#D9330A"></path>
      <path d="M6.99990749,3.16981132 C5.17924873,3.16981132 3.69811321,4.65090534 3.69811321,6.4715131 C3.69811321,8.29230587 5.17924873,9.77358491 6.99990749,9.77358491 C8.82056626,9.77358491 10.3018868,8.29230587 10.3018868,6.4715131 C10.3018868,4.65109035 8.82056626,3.16981132 6.99990749,3.16981132 Z" fill="#000000" fill-opacity="0.6"></path>
   </g>
   <g fill-rule="nonzero" id="SC_-_CU-1(b)/07_pin" transform="matrix(1 0 0 1 363.76 357.63)" class="pin">
      <path d="M6.94981132,0 C3.11777358,0 0,3.12146636 0,6.95816406 C0,7.91013062 0.189132075,8.83326574 0.563169811,9.70455717 C0.623132075,9.8434242 0.687320755,9.97911714 0.753358491,10.1092554 L6.94981132,23.245283 L13.0873585,10.2224651 C13.618566,9.22341597 13.8993585,8.09475763 13.8993585,6.95816406 C13.8996226,3.12120184 10.7818491,0 6.94981132,0 Z" fill="#ED3435" fill-opacity="0.9" stroke="#D9330A"></path>
      <path d="M6.99990749,3.16981132 C5.17924873,3.16981132 3.69811321,4.65090534 3.69811321,6.4715131 C3.69811321,8.29230587 5.17924873,9.77358491 6.99990749,9.77358491 C8.82056626,9.77358491 10.3018868,8.29230587 10.3018868,6.4715131 C10.3018868,4.65109035 8.82056626,3.16981132 6.99990749,3.16981132 Z" fill="#000000" fill-opacity="0.6"></path>
   </g>
   <g fill-rule="nonzero" id="SC_-_CU-1(b)/06_pin" transform="matrix(1 0 0 1 383.815 357.63)" class="pin">
      <path d="M6.94981132,0 C3.11777358,0 0,3.12146636 0,6.95816406 C0,7.91013062 0.189132075,8.83326574 0.563169811,9.70455717 C0.623132075,9.8434242 0.687320755,9.97911714 0.753358491,10.1092554 L6.94981132,23.245283 L13.0873585,10.2224651 C13.618566,9.22341597 13.8993585,8.09475763 13.8993585,6.95816406 C13.8996226,3.12120184 10.7818491,0 6.94981132,0 Z" fill="#ED3435" fill-opacity="0.9" stroke="#D9330A"></path>
      <path d="M6.99990749,3.16981132 C5.17924873,3.16981132 3.69811321,4.65090534 3.69811321,6.4715131 C3.69811321,8.29230587 5.17924873,9.77358491 6.99990749,9.77358491 C8.82056626,9.77358491 10.3018868,8.29230587 10.3018868,6.4715131 C10.3018868,4.65109035 8.82056626,3.16981132 6.99990749,3.16981132 Z" fill="#000000" fill-opacity="0.6"></path>
   </g>
   <g fill-rule="nonzero" id="SC_-_CU-1(b)/05_pin" transform="matrix(1 0 0 1 446.15 313.67)" class="pin">
      <path d="M6.94981132,0 C3.11777358,0 0,3.12146636 0,6.95816406 C0,7.91013062 0.189132075,8.83326574 0.563169811,9.70455717 C0.623132075,9.8434242 0.687320755,9.97911714 0.753358491,10.1092554 L6.94981132,23.245283 L13.0873585,10.2224651 C13.618566,9.22341597 13.8993585,8.09475763 13.8993585,6.95816406 C13.8996226,3.12120184 10.7818491,0 6.94981132,0 Z" fill="#ED3435" fill-opacity="0.9" stroke="#D9330A"></path>
      <path d="M6.99990749,3.16981132 C5.17924873,3.16981132 3.69811321,4.65090534 3.69811321,6.4715131 C3.69811321,8.29230587 5.17924873,9.77358491 6.99990749,9.77358491 C8.82056626,9.77358491 10.3018868,8.29230587 10.3018868,6.4715131 C10.3018868,4.65109035 8.82056626,3.16981132 6.99990749,3.16981132 Z" fill="#000000" fill-opacity="0.6"></path>
   </g>
   <g fill-rule="nonzero" id="SC_-_CU-1(b)/04_pin" transform="matrix(1 0 0 1 447.43 176.44)" class="pin">
      <path d="M6.94981132,0 C3.11777358,0 0,3.12146636 0,6.95816406 C0,7.91013062 0.189132075,8.83326574 0.563169811,9.70455717 C0.623132075,9.8434242 0.687320755,9.97911714 0.753358491,10.1092554 L6.94981132,23.245283 L13.0873585,10.2224651 C13.618566,9.22341597 13.8993585,8.09475763 13.8993585,6.95816406 C13.8996226,3.12120184 10.7818491,0 6.94981132,0 Z" fill="#ED3435" fill-opacity="0.9" stroke="#D9330A"></path>
      <path d="M6.99990749,3.16981132 C5.17924873,3.16981132 3.69811321,4.65090534 3.69811321,6.4715131 C3.69811321,8.29230587 5.17924873,9.77358491 6.99990749,9.77358491 C8.82056626,9.77358491 10.3018868,8.29230587 10.3018868,6.4715131 C10.3018868,4.65109035 8.82056626,3.16981132 6.99990749,3.16981132 Z" fill="#000000" fill-opacity="0.6"></path>
   </g>
   <g fill-rule="nonzero" id="SC_-_CU-1(b)/03_pin" transform="matrix(1 0 0 1 444.71000000000004 145.25)" class="pin">
      <path d="M6.94981132,0 C3.11777358,0 0,3.12146636 0,6.95816406 C0,7.91013062 0.189132075,8.83326574 0.563169811,9.70455717 C0.623132075,9.8434242 0.687320755,9.97911714 0.753358491,10.1092554 L6.94981132,23.245283 L13.0873585,10.2224651 C13.618566,9.22341597 13.8993585,8.09475763 13.8993585,6.95816406 C13.8996226,3.12120184 10.7818491,0 6.94981132,0 Z" fill="#ED3435" fill-opacity="0.9" stroke="#D9330A"></path>
      <path d="M6.99990749,3.16981132 C5.17924873,3.16981132 3.69811321,4.65090534 3.69811321,6.4715131 C3.69811321,8.29230587 5.17924873,9.77358491 6.99990749,9.77358491 C8.82056626,9.77358491 10.3018868,8.29230587 10.3018868,6.4715131 C10.3018868,4.65109035 8.82056626,3.16981132 6.99990749,3.16981132 Z" fill="#000000" fill-opacity="0.6"></path>
   </g>
   <g fill-rule="nonzero" id="SC_-_CU-1(b)/02_pin" transform="matrix(1 0 0 1 442.895 114.13)" class="pin">
      <path d="M6.94981132,0 C3.11777358,0 0,3.12146636 0,6.95816406 C0,7.91013062 0.189132075,8.83326574 0.563169811,9.70455717 C0.623132075,9.8434242 0.687320755,9.97911714 0.753358491,10.1092554 L6.94981132,23.245283 L13.0873585,10.2224651 C13.618566,9.22341597 13.8993585,8.09475763 13.8993585,6.95816406 C13.8996226,3.12120184 10.7818491,0 6.94981132,0 Z" fill="#ED3435" fill-opacity="0.9" stroke="#D9330A"></path>
      <path d="M6.99990749,3.16981132 C5.17924873,3.16981132 3.69811321,4.65090534 3.69811321,6.4715131 C3.69811321,8.29230587 5.17924873,9.77358491 6.99990749,9.77358491 C8.82056626,9.77358491 10.3018868,8.29230587 10.3018868,6.4715131 C10.3018868,4.65109035 8.82056626,3.16981132 6.99990749,3.16981132 Z" fill="#000000" fill-opacity="0.6"></path>
   </g>
   <g fill-rule="nonzero" id="SC_-_CU-1(b)/01_pin" transform="matrix(1 0 0 1 442.765 71.67)" class="pin">
      <path d="M6.94981132,0 C3.11777358,0 0,3.12146636 0,6.95816406 C0,7.91013062 0.189132075,8.83326574 0.563169811,9.70455717 C0.623132075,9.8434242 0.687320755,9.97911714 0.753358491,10.1092554 L6.94981132,23.245283 L13.0873585,10.2224651 C13.618566,9.22341597 13.8993585,8.09475763 13.8993585,6.95816406 C13.8996226,3.12120184 10.7818491,0 6.94981132,0 Z" fill="#ED3435" fill-opacity="0.9" stroke="#D9330A"></path>
      <path d="M6.99990749,3.16981132 C5.17924873,3.16981132 3.69811321,4.65090534 3.69811321,6.4715131 C3.69811321,8.29230587 5.17924873,9.77358491 6.99990749,9.77358491 C8.82056626,9.77358491 10.3018868,8.29230587 10.3018868,6.4715131 C10.3018868,4.65109035 8.82056626,3.16981132 6.99990749,3.16981132 Z" fill="#000000" fill-opacity="0.6"></path>
   </g>
</svg>